<svg width="93" height="69" viewBox="0 0 93 69" fill="none" xmlns="http://www.w3.org/2000/svg">
<path d="M41.2162 31.4105C42.2792 24.915 37.8752 18.7878 31.3798 17.7248C24.8844 16.6619 18.7571 21.0658 17.6942 27.5612C16.6312 34.0567 21.0351 40.1839 27.5306 41.2469C34.026 42.3098 40.1533 37.9059 41.2162 31.4105Z" fill="#FFDC7B"/>
<path d="M29.4722 13.0172C28.693 13.0172 28.0513 12.3755 28.0513 11.5963V1.42089C28.0513 0.641693 28.693 0 29.4722 0C30.2514 0 30.8931 0.641693 30.8931 1.42089V11.5963C30.8931 12.3755 30.2514 13.0172 29.4722 13.0172Z" fill="#FFDC7B"/>
<path d="M29.4722 58.9898C28.693 58.9898 28.0513 58.3482 28.0513 57.569V47.3935C28.0513 46.6143 28.693 45.9727 29.4722 45.9727C30.2514 45.9727 30.8931 46.6143 30.8931 47.3935V57.569C30.8931 58.3482 30.2514 58.9898 29.4722 58.9898Z" fill="#FFDC7B"/>
<path d="M41.1142 17.8754C40.5642 17.3254 40.5642 16.4087 41.1142 15.8586L48.3103 8.66252C48.8603 8.11249 49.777 8.11249 50.3271 8.66252C50.8771 9.21254 50.8771 10.1292 50.3271 10.6793L43.1309 17.8754C42.5809 18.4254 41.6642 18.4254 41.1142 17.8754Z" fill="#FFDC7B"/>
<path d="M8.61711 50.3266C8.06708 49.7765 8.06708 48.8598 8.61711 48.3098L15.8132 41.1137C16.3633 40.5637 17.28 40.5637 17.83 41.1137C18.38 41.6637 18.38 42.5804 17.83 43.1304L10.6339 50.3266C10.0838 50.9224 9.16713 50.9224 8.61711 50.3266Z" fill="#FFDC7B"/>
<path d="M45.9268 29.4717C45.9268 28.6925 46.5685 28.0508 47.3477 28.0508H57.5231C58.3023 28.0508 58.944 28.6925 58.944 29.4717C58.944 30.2509 58.3023 30.8926 57.5231 30.8926H47.3477C46.5685 30.9384 45.9268 30.2967 45.9268 29.4717Z" fill="#FFDC7B"/>
<path d="M0 29.4717C0 28.6925 0.641682 28.0508 1.42088 28.0508H11.5963C12.3755 28.0508 13.0172 28.6925 13.0172 29.4717C13.0172 30.2509 12.3755 30.8926 11.5963 30.8926H1.42088C0.641682 30.9384 0 30.2967 0 29.4717Z" fill="#FFDC7B"/>
<path d="M41.1142 41.1147C41.6642 40.5646 42.5809 40.5646 43.1309 41.1147L50.3271 48.3108C50.8771 48.8608 50.8771 49.7775 50.3271 50.3275C49.777 50.8776 48.8603 50.8776 48.3103 50.3275L41.1142 43.1314C40.5642 42.5814 40.5642 41.7105 41.1142 41.1147Z" fill="#FFDC7B"/>
<path d="M8.61711 8.61759C9.16713 8.06757 10.0838 8.06757 10.6339 8.61759L17.83 15.8137C18.38 16.3637 18.38 17.2804 17.83 17.8305C17.28 18.3805 16.3633 18.3805 15.8132 17.8305L8.61711 10.6802C8.06708 10.0843 8.06708 9.21345 8.61711 8.61759Z" fill="#FFDC7B"/>
<path d="M84.1076 50.3272C84.0618 50.3272 84.0159 50.3272 84.0159 50.3272C84.7035 48.6771 85.116 46.8896 85.116 45.0103C85.116 37.585 79.1116 31.5806 71.6863 31.5806C69.0737 31.5806 66.5986 32.3598 64.536 33.6432C61.74 26.8137 55.0481 22.0469 47.2103 22.0469C36.8515 22.0469 28.5095 30.4347 28.5095 40.7476C28.5095 41.5268 28.5554 42.306 28.647 43.0394C28.6012 43.0394 28.5554 43.0394 28.5095 43.0394C21.5884 43.0394 15.9507 48.6771 15.9507 55.5982C15.9507 62.5194 21.5884 68.1571 28.5095 68.1571H84.1076C89.012 68.1571 92.9996 64.1694 92.9996 59.2651C93.0455 54.3149 89.0578 50.3272 84.1076 50.3272Z" fill="white"/>
</svg>
